<svg width="30" height="22" viewBox="0 0 30 22" fill="none" xmlns="http://www.w3.org/2000/svg">
<path d="M27.3633 0.723206H2.63672C1.18283 0.723206 0 1.90604 0 3.35992V18.6401C0 20.094 1.18283 21.2768 2.63672 21.2768H27.3633C28.8172 21.2768 30 20.094 30 18.6401V3.35992C30 1.90604 28.8172 0.723206 27.3633 0.723206ZM27.0192 2.48102L26.6672 2.77405L16.0461 11.6182C15.4399 12.123 14.56 12.123 13.9539 11.6182L3.33275 2.77405L2.98084 2.48102H27.0192ZM1.75781 3.75004L10.4116 10.9561L1.75781 16.7154V3.75004ZM27.3633 19.519H2.63672C2.21203 19.519 1.85684 19.2162 1.77545 18.8153L11.8211 12.1296L12.8291 12.9691C13.458 13.4928 14.2291 13.7546 15.0001 13.7546C15.771 13.7546 16.542 13.4928 17.171 12.9691L18.1791 12.1296L28.2246 18.8152C28.1432 19.2163 27.788 19.519 27.3633 19.519ZM28.2422 16.7154L19.5884 10.9561L28.2422 3.75004V16.7154Z" fill="white"/>
</svg>
