<svg width="30" height="30" viewBox="0 0 30 30" fill="none" xmlns="http://www.w3.org/2000/svg">
<path d="M29.5367 0.821325C29.1703 0.29163 28.6214 0 27.9911 0C27.6484 0 27.2854 0.0852165 26.9124 0.253756L1.51799 11.7115C0.170335 12.3193 -0.0111681 13.2316 0.000504847 13.7212C0.0121778 14.2109 0.237168 15.1096 1.61183 15.6265C1.62007 15.6295 1.62831 15.6325 1.63655 15.6352L6.90402 17.4169L9.75268 27.045C10.1411 28.3576 11.0129 29.173 12.0282 29.173C12.6684 29.173 13.298 28.8559 13.8492 28.2564L17.1073 24.7106L21.833 29.2082C21.8335 29.2087 21.8342 29.209 21.8346 29.2095L21.8795 29.2523C21.8836 29.256 21.888 29.2601 21.8921 29.2639C22.4174 29.7454 22.9907 29.9997 23.5508 30H23.551C24.6453 30 25.5166 29.0426 25.7705 27.5612L29.9313 3.27745C30.0984 2.30274 29.9583 1.43056 29.5367 0.821325V0.821325ZM8.66618 17.0785L18.8287 10.9421L12.5009 18.8894C12.3972 19.0195 12.3237 19.1789 12.2875 19.3523L11.0674 25.1941L8.66618 17.0785ZM12.6583 26.728C12.6162 26.7737 12.5739 26.8145 12.5315 26.8521L13.6636 21.4329L15.7228 23.3929L12.6583 26.728ZM28.2085 2.8649L24.0477 27.1489C24.0076 27.3813 23.8797 27.9221 23.5508 27.9221C23.3883 27.9221 23.1841 27.8174 22.9751 27.6272L17.6202 22.531C17.6196 22.5302 17.6186 22.5294 17.6177 22.5288L14.4315 19.4962L23.5824 8.00332C23.8753 7.6354 23.9019 7.07189 23.6453 6.66772C23.3885 6.26355 22.9232 6.1364 22.5426 6.36635L7.49179 15.4545L2.15268 13.649L27.5393 2.1948C27.7537 2.09795 27.9034 2.07766 27.9911 2.07766C28.0449 2.07766 28.1405 2.08523 28.176 2.13691C28.2227 2.20427 28.2822 2.43395 28.2085 2.8649V2.8649Z" fill="white"/>
</svg>
